# vtk DataFile Version 3.0
Unified elasticity boundary, discontinuous fields
ASCII
DATASET UNSTRUCTURED_GRID
POINTS 192 double
0 0 0
0.03125 0 0
0.0625 0 0
0.0625 0 0
0.09375 0 0
0.125 0 0
0.125 0 0
0.15625 0 0
0.1875 0 0
0.1875 0 0
0.21875 0 0
0.25 0 0
0.25 0 0
0.28125 0 0
0.3125 0 0
0.3125 0 0
0.34375 0 0
0.375 0 0
0.375 0 0
0.40625 0 0
0.4375 0 0
0.4375 0 0
0.46875 0 0
0.5 0 0
0.5 0 0
0.53125 0 0
0.5625 0 0
0.5625 0 0
0.59375 0 0
0.625 0 0
0.625 0 0
0.65625 0 0
0.6875 0 0
0.6875 0 0
0.71875 0 0
0.75 0 0
0.75 0 0
0.78125 0 0
0.8125 0 0
0.8125 0 0
0.84375 0 0
0.875 0 0
0.875 0 0
0.90625 0 0
0.9375 0 0
0.9375 0 0
0.96875 0 0
1 0 0
1 0 0
1 0.03125 0
1 0.0625 0
1 0.0625 0
1 0.09375 0
1 0.125 0
1 0.125 0
1 0.15625 0
1 0.1875 0
1 0.1875 0
1 0.21875 0
1 0.25 0
1 0.25 0
1 0.28125 0
1 0.3125 0
1 0.3125 0
1 0.34375 0
1 0.375 0
1 0.375 0
1 0.40625 0
1 0.4375 0
1 0.4375 0
1 0.46875 0
1 0.5 0
1 0.5 0
1 0.53125 0
1 0.5625 0
1 0.5625 0
1 0.59375 0
1 0.625 0
1 0.625 0
1 0.65625 0
1 0.6875 0
1 0.6875 0
1 0.71875 0
1 0.75 0
1 0.75 0
1 0.78125 0
1 0.8125 0
1 0.8125 0
1 0.84375 0
1 0.875 0
1 0.875 0
1 0.90625 0
1 0.9375 0
1 0.9375 0
1 0.96875 0
1 1 0
1 1 0
0.96875 1 0
0.9375 1 0
0.9375 1 0
0.90625 1 0
0.875 1 0
0.875 1 0
0.84375 1 0
0.8125 1 0
0.8125 1 0
0.78125 1 0
0.75 1 0
0.75 1 0
0.71875 1 0
0.6875 1 0
0.6875 1 0
0.65625 1 0
0.625 1 0
0.625 1 0
0.59375 1 0
0.5625 1 0
0.5625 1 0
0.53125 1 0
0.5 1 0
0.5 1 0
0.46875 1 0
0.4375 1 0
0.4375 1 0
0.40625 1 0
0.375 1 0
0.375 1 0
0.34375 1 0
0.3125 1 0
0.3125 1 0
0.28125 1 0
0.25 1 0
0.25 1 0
0.21875 1 0
0.1875 1 0
0.1875 1 0
0.15625 1 0
0.125 1 0
0.125 1 0
0.09375 1 0
0.0625 1 0
0.0625 1 0
0.03125 1 0
0 1 0
0 1 0
0 0.96875 0
0 0.9375 0
0 0.9375 0
0 0.90625 0
0 0.875 0
0 0.875 0
0 0.84375 0
0 0.8125 0
0 0.8125 0
0 0.78125 0
0 0.75 0
0 0.75 0
0 0.71875 0
0 0.6875 0
0 0.6875 0
0 0.65625 0
0 0.625 0
0 0.625 0
0 0.59375 0
0 0.5625 0
0 0.5625 0
0 0.53125 0
0 0.5 0
0 0.5 0
0 0.46875 0
0 0.4375 0
0 0.4375 0
0 0.40625 0
0 0.375 0
0 0.375 0
0 0.34375 0
0 0.3125 0
0 0.3125 0
0 0.28125 0
0 0.25 0
0 0.25 0
0 0.21875 0
0 0.1875 0
0 0.1875 0
0 0.15625 0
0 0.125 0
0 0.125 0
0 0.09375 0
0 0.0625 0
0 0.0625 0
0 0.03125 0
0 0 0
CELLS 64 256
3 0 2 1
3 3 5 4
3 6 8 7
3 9 11 10
3 12 14 13
3 15 17 16
3 18 20 19
3 21 23 22
3 24 26 25
3 27 29 28
3 30 32 31
3 33 35 34
3 36 38 37
3 39 41 40
3 42 44 43
3 45 47 46
3 48 50 49
3 51 53 52
3 54 56 55
3 57 59 58
3 60 62 61
3 63 65 64
3 66 68 67
3 69 71 70
3 72 74 73
3 75 77 76
3 78 80 79
3 81 83 82
3 84 86 85
3 87 89 88
3 90 92 91
3 93 95 94
3 96 98 97
3 99 101 100
3 102 104 103
3 105 107 106
3 108 110 109
3 111 113 112
3 114 116 115
3 117 119 118
3 120 122 121
3 123 125 124
3 126 128 127
3 129 131 130
3 132 134 133
3 135 137 136
3 138 140 139
3 141 143 142
3 144 146 145
3 147 149 148
3 150 152 151
3 153 155 154
3 156 158 157
3 159 161 160
3 162 164 163
3 165 167 166
3 168 170 169
3 171 173 172
3 174 176 175
3 177 179 178
3 180 182 181
3 183 185 184
3 186 188 187
3 189 191 190
CELL_TYPES 64
21
21
21
21
21
21
21
21
21
21
21
21
21
21
21
21
21
21
21
21
21
21
21
21
21
21
21
21
21
21
21
21
21
21
21
21
21
21
21
21
21
21
21
21
21
21
21
21
21
21
21
21
21
21
21
21
21
21
21
21
21
21
21
21
POINT_DATA 192
VECTORS displacement_m double
-6.5747787827285945E-10 0 0
9.4790364214452833E-5 0 0
0.00018958250457876388 0 0
0.00018958236760489329 0 0
0.00028437439834691703 0 0
0.00037916615212762724 0 0
3.79166185355944E-04 0 0
0.0004739579204743428 0 0
0.00056874987039224213 0 0
0.00056874981035164409 0 0
0.00066354178301698222 0 0
0.00075833319657440587 0 0
0.00075833319054660782 0 0
0.00085312553144702955 0 0
9.47916878394633E-04 0 0
0.00094791698446930906 0 0
0.0010427079627746262 0 0
0.0011374993196700085 0 0
0.0011374993080084926 0 0
0.0012322912970068839 0 0
0.0013270834912019946 0 0
0.0013270834288526992 0 0
0.0014218752109631467 0 0
0.0015166663853425956 0 0
0.0015166664469562893 0 0
0.0016114576201155264 0 0
0.0017062493985270097 0 0
0.0017062493361417114 0 0
0.0018010415240535568 0 0
0.0018958335039184536 0 0
0.001895833492116434 0 0
0.0019906248365747859 0 0
0.0020854157981432435 0 0
0.0020854159037135313 0 0
2.18020722796336E-03 0 0
0.0022749995366472442 0 0
0.0022749995289336779 0 0
0.002369790894927358 0 0
0.002464582792999619 0 0
0.0024645827288166449 0 0
0.0025593745590967547 0 0
0.0026541661022178764 0 0
0.0026541661402465929 0 0
0.002748957600656242 0 0
0.0028437492908014832 0 0
0.0028437493354870748 0 0
2.93854133140654E-03 0 0
0.0030333338519106467 0 0
0.0030333339323145676 5.7023889910289569E-10 0
0.0030333298620315165 -4.0623529809877658E-5 0
0.0030333308170256952 -8.1250513803672646E-5 0
0.0030333303933997822 -8.1250252261878727E-5 0
0.0030333346897783078 -0.00012187667578389039 0
3.03333732692709E-03 -0.00016250135084496089 0
0.0030333373192409302 -0.00016250134077302678 0
0.003033335283318647 -0.00020312460762817846 0
0.0030333307119763992 -0.00024374839510105204 0
0.0030333312305954223 -0.00024374842225116563 0
0.0030333290307787138 -0.00028437460278042648 0
0.0030333327681643573 -0.0003250013631802959 0
0.0030333325229129674 -0.00032500077010401629 0
0.0030333334040945274 -0.00036562716629890779 0
0.0030333339019200305 -0.00040625117917282664 0
0.0030333339312946647 -0.0004062513730391375 0
0.0030333332301774418 -0.00044687447070899494 0
0.0030333323685178483 -0.00048749869364960791 0
0.0030333323776900903 -0.00048749868811326445 0
0.0030333324205725196 -0.00052812484567899844 0
0.0030333334176653065 -0.00056875158765973494 0
0.0030333332795575538 -0.00056875143382777106 0
0.0030333343293479213 -0.00060937666453319747 0
0.0030333337678365288 -0.0006500000032175319 0
0.0030333337692622082 -0.00065000036357593506 0
0.0030333343253165163 -0.00069062370254390686 0
0.0030333332700450766 -7.31248933559327E-04 0
0.0030333334110234709 -0.00073124877977062772 0
0.0030333324088060044 -7.71875522616081E-04 0
0.0030333323607320871 -0.00081250168092040446 0
0.003033332354484023 -0.00081250167545416567 0
0.0030333332116187811 -0.00085312589960401914 0
0.003033333908058709 -0.00089374899794498227 0
0.0030333338816767204 -0.00089374919187264776 0
0.0030333333799205031 -0.00093437320558351251 0
0.0030333324942271958 -0.00097499960119805872 0
0.0030333327425071483 -9.7499900814897E-04 0
0.0030333290005324439 -0.0010156257674376751 0
0.0030333311933150153 -0.001056251944132831 0
0.0030333306777673439 -0.0010562519717380238 0
0.0030333352378660613 -0.0010968757545673686 0
0.003033337254104122 -0.0011374990167866907 0
0.0030333372677641317 -0.0011374990122053051 0
0.003033334592199849 -0.0011781236953305235 0
0.0030333302522005143 -0.0012187501846182708 0
0.0030333307789403769 -0.0012187499507069497 0
0.0030333297635049584 -0.0012593772253515182 0
0.0030333345343945542 -0.0013000022224641053 0
0.0030333346309144079 -0.0013000018638668865 0
0.0029385416748633989 -0.0012999999553676414 0
0.002843749242684177 -0.0013000000621159536 0
0.0028437492556202962 -0.0012999998526112733 0
0.0027489574696914474 -0.0013000004022981127 0
0.002654166066761764 -0.0013000008235859205 0
0.0026541660347678287 -0.0013000008109713202 0
0.0025593745889899728 -0.0013000006655540315 0
0.0024645827776014068 -0.0013000002659376557 0
0.0024645828476120243 -0.0013000002966525607 0
0.002369790821590321 -0.0013000003314042339 0
0.0022749995026727955 -0.0013000009817943192 0
0.0022749994874970247 -0.0012999998597433581 0
0.0021802071644130509 -0.0013000007242853996 0
0.0020854160585349647 -0.001300000754532613 0
0.0020854159609442228 -0.0013000008161096741 0
0.0019906250193180465 -0.0012999998712246192 0
0.0018958334815360842 -0.0012999991483418922 0
0.0018958334807465541 -0.0012999991587313896 0
0.0018010411956482959 -0.0012999995808179704 0
0.0017062488905186537 -0.0013000008122074649 0
0.0017062489181829358 -0.0013000006597117617 0
0.0016114574902646396 -0.0013000014264667745 0
0.0015166665467314139 -0.0013000004400956684 0
0.0015166661856290873 -0.0013000004387021128 0
0.0014218752408832686 -0.0013000014250091564 0
0.0013270838089859934 -0.0013000006578763961 0
0.0013270838369546926 -0.0013000008076011359 0
0.0012322915252701845 -0.0012999995762419429 0
0.0011374992304533245 -0.0012999991530546953 0
0.0011374992302021145 -0.0012999991399533911 0
0.0010427076793090996 -0.001299999862108103 0
0.00094791671973691268 -0.0013000008037753576 0
0.00094791662265738294 -0.0013000007396990925 0
0.00085312549221616847 -0.0013000007057526466 0
0.00075833313353306918 -0.0012999998335755602 0
0.00075833311812876017 -0.0013000009541339276 0
0.0006635417452845304 -0.0013000002955071584 0
0.00056874963397401468 -0.0013000002538078007 0
0.00056874970290600891 -0.0013000002260110846 0
0.00047395775149171781 -0.0013000006345229723 0
0.00037916608874097448 -0.0013000008400893602 0
0.0003791660721196732 -0.0013000008584547955 0
0.00028437434433697381 -0.0013000006306727854 0
0.00018958225699864029 -0.0013000004826943848 0
0.00018958235575343752 -0.0013000003954223784 0
9.47901719482092E-05 -0.0013000010581751169 0
-7.1283797670239433E-10 -0.0013000017268635651 0
0 -0.0013000015906958239 0
0 -0.0012593776333600765 0
0 -0.0012187516032856447 0
0 -0.0012187518369703837 0
0 -0.0011781252614295843 0
0 -0.0011374996264530693 0
0 -0.0011374995815552256 0
0 -0.0010968752027605898 0
0 -0.0010562511169747231 0
0 -0.0010562510245010473 0
0 -0.0010156261344442996 0
0 -0.00097500034056388521 0
0 -0.00097500047266776491 0
0 -0.00093437383245654419 0
0 -0.00089374955532421857 0
0 -0.00089374930259710893 0
0 -0.00085312600649445011 0
0 -0.00081250180791490965 0
0 -0.00081250182211107982 0
0 -7.71875931584207E-04 0
0 -0.00073124934911615537 0
0 -0.00073124954959629513 0
0 -0.0006906240036132187 0
0 -0.00065000036132037311 0
0 -0.0006500002365656324 0
0 -0.0006093765952605659 0
0 -0.00056875105228079118 0
0 -0.00056875125278701554 0
0 -0.00052812467543435345 0
0 -0.00048749879231878019 0
0 -0.00048749880657197718 0
0 -0.00044687461794919316 0
0 -4.06251334710947E-04 0
0 -0.00040625108208766782 0
0 -3.65626821184297E-04 0
0 -0.00032500020121699309 0
0 -0.00032500033352901955 0
0 -0.0002843745647513705 0
0 -0.00024374970602121957 0
0 -0.00024374961418852212 0
0 -0.00020312556796245584 0
0 -0.00016250124144229124 0
0 -0.0001625011999120467 0
0 -0.00012187563817933828 0
0 -8.1249181879403757E-5 0
0 -8.1249428937177532E-5 0
0 -4.062361673780842E-5 0
0 -7.24401453038271E-11 0
VECTORS traction_kPa double
0 -0.00060838528133249649 0
0 -8.8831520768744768E-5 0
0 0.00035666572086910729 0
0 0.00021924964383967353 0
0 3.814801064029219E-5 0
0 -0.00018442091602982645 0
0 -0.00015931387170330476 0
0 -7.075987869386751E-5 0
0 0.00020692795872441494 0
0 4.2850840016906631E-5 0
0 0.00017294235104647638 0
0 -0.0010384737341579007 0
0 0.0011852053206187335 0
0 -0.00026826696355325067 0
0 -0.00019225697676738797 0
0 -0.00040870056221072661 0
0 0.00017383224558071758 0
0 0.00059072896443687444 0
0 0.00062009907164777033 0
0 0.00042814794822858368 0
0 -0.00025161490087964469 0
0 -1.9944983647450463E-5 0
0 -0.00064906451796449148 0
0 0.0006862000264420445 0
0 0.00068741046736519446 0
0 -0.00065013736868666406 0
0 -2.3386191200001662E-5 0
0 -0.00025259631583939371 0
0 0.00042470159440333708 0
0 0.00061396297076294043 0
0 0.00058720096049716549 0
0 0.0001671473262228325 0
0 -4.18340988995212E-04 0
0 -0.0001998611604769475 0
0 -0.00028012339350263007 0
0 0.0011655980612821134 0
0 -0.0010530913296197162 0
0 0.00014475955638321256 0
0 2.9825503398477593E-6 0
0 0.00016469587119099136 0
0 -0.0001379094459556596 0
0 -0.00024879933846372017 0
0 -0.00025935912296269517 0
0 -4.4608902712077923E-5 0
0 0.00032846073261602387 0
0 -6.53374741153266E-05 0
0 0.00046407220036543729 0
0 -0.0013698551292279145 0
100 0 0
100 0 0
100 0 0
100 0 0
100 0 0
100 0 0
100 0 0
100 0 0
100 0 0
100 0 0
100 0 0
100 0 0
100 0 0
100 0 0
100 0 0
100 0 0
100 0 0
100 0 0
100 0 0
100 0 0
100 0 0
100 0 0
100 0 0
100 0 0
100 0 0
100 0 0
100 0 0
100 0 0
100 0 0
100 0 0
100 0 0
100 0 0
100 0 0
100 0 0
100 0 0
100 0 0
100 0 0
100 0 0
100 0 0
100 0 0
100 0 0
100 0 0
100 0 0
100 0 0
100 0 0
100 0 0
100 0 0
100 0 0
0 0 0
0 0 0
0 0 0
0 0 0
0 0 0
0 0 0
0 0 0
0 0 0
0 0 0
0 0 0
0 0 0
0 0 0
0 0 0
0 0 0
0 0 0
0 0 0
0 0 0
0 0 0
0 0 0
0 0 0
0 0 0
0 0 0
0 0 0
0 0 0
0 0 0
0 0 0
0 0 0
0 0 0
0 0 0
0 0 0
0 0 0
0 0 0
0 0 0
0 0 0
0 0 0
0 0 0
0 0 0
0 0 0
0 0 0
0 0 0
0 0 0
0 0 0
0 0 0
0 0 0
0 0 0
0 0 0
0 0 0
0 0 0
-99.996661632933467 0 0
-100.00182204081386 0 0
-100.00085876132194 0 0
-100.00163655893314 0 0
-99.999087146637464 0 0
-99.9976724344224 0 0
-99.997607792281713 0 0
-99.998683832771775 0 0
-100.00129330811083 0 0
-100.00072530308714 0 0
-100.00248064115208 0 0
-99.999014736935237 0 0
-99.999071834327722 0 0
-99.999610347448908 0 0
-99.999239426868442 0 0
-99.999376904559384 0 0
-99.999877099803129 0 0
-100.00037306018045 0 0
-100.00046921294394 0 0
-100.00046374092355 0 0
-99.999962779929817 0 0
-100.00013331869198 0 0
-99.999352481938374 0 0
-100.000299428877 0 0
-100.00029869154022 0 0
-99.999351831363086 0 0
-100.00013288774012 0 0
-99.99996079960026 0 0
-100.00046197016384 0 0
-100.00046772220485 0 0
-100.00036993276196 0 0
-99.999874296003924 0 0
-99.99937392412734 0 0
-99.999235118367039 0 0
-99.999605950541948 0 0
-99.999068006105333 0 0
-99.999008412337858 0 0
-100.00247531321743 0 0
-100.00071813503212 0 0
-100.00128665243007 0 0
-99.998676943157477 0 0
-99.997595808357531 0 0
-99.997666241871073 0 0
-99.999072513806269 0 0
-100.00161070712603 0 0
-100.00089970151556 0 0
-100.00181820983032 0 0
-99.9970725417179 0 0
